<mxfile host="app.diagrams.net" modified="2023-08-25T20:56:18.936Z" agent="Mozilla/5.0 (Windows NT 10.0; Win64; x64) AppleWebKit/537.36 (KHTML, like Gecko) Chrome/116.0.0.0 Safari/537.36 Edg/116.0.1938.54" etag="GM-kOSVLSh5vWT8ogyaw" version="21.6.9" type="github">
  <diagram name="PÃ¡gina-1" id="8QFgCUBEhLeUxpsZhSJj">
    <mxGraphModel dx="3679" dy="2755" grid="1" gridSize="10" guides="1" tooltips="1" connect="1" arrows="1" fold="1" page="1" pageScale="1" pageWidth="827" pageHeight="1169" math="0" shadow="0">
      <root>
        <mxCell id="0" />
        <mxCell id="1" parent="0" />
        <mxCell id="Xy-snG1Vy1SHUKCUvtYk-78" value="" style="group" vertex="1" connectable="0" parent="1">
          <mxGeometry x="-770" y="-930" width="690" height="850" as="geometry" />
        </mxCell>
        <mxCell id="Xy-snG1Vy1SHUKCUvtYk-1" value="sucursal&amp;nbsp;" style="rounded=0;whiteSpace=wrap;html=1;fillColor=#ffe6cc;strokeColor=#d79b00;" vertex="1" parent="Xy-snG1Vy1SHUKCUvtYk-78">
          <mxGeometry x="86.76646706586826" y="240.4040404040404" width="99.16167664670658" height="51.515151515151516" as="geometry" />
        </mxCell>
        <mxCell id="Xy-snG1Vy1SHUKCUvtYk-2" value="empleado&amp;nbsp;" style="rounded=0;whiteSpace=wrap;html=1;fillColor=#d5e8d4;strokeColor=#82b366;" vertex="1" parent="Xy-snG1Vy1SHUKCUvtYk-78">
          <mxGeometry x="508.20359281437123" y="240.4040404040404" width="99.16167664670658" height="51.515151515151516" as="geometry" />
        </mxCell>
        <mxCell id="Xy-snG1Vy1SHUKCUvtYk-3" value="" style="endArrow=classic;startArrow=classic;html=1;rounded=0;exitX=1;exitY=0.5;exitDx=0;exitDy=0;" edge="1" parent="Xy-snG1Vy1SHUKCUvtYk-78" source="Xy-snG1Vy1SHUKCUvtYk-1">
          <mxGeometry width="50" height="50" relative="1" as="geometry">
            <mxPoint x="342.9341317365269" y="377.77777777777777" as="sourcePoint" />
            <mxPoint x="326.4071856287425" y="266.16161616161617" as="targetPoint" />
          </mxGeometry>
        </mxCell>
        <mxCell id="Xy-snG1Vy1SHUKCUvtYk-4" value="TIENE" style="rhombus;whiteSpace=wrap;html=1;fillColor=#1ba1e2;fontColor=#ffffff;strokeColor=#006EAF;" vertex="1" parent="Xy-snG1Vy1SHUKCUvtYk-78">
          <mxGeometry x="326.4071856287425" y="231.8181818181818" width="66.10778443113772" height="68.68686868686868" as="geometry" />
        </mxCell>
        <mxCell id="Xy-snG1Vy1SHUKCUvtYk-5" value="" style="endArrow=classic;startArrow=classic;html=1;rounded=0;entryX=0;entryY=0.5;entryDx=0;entryDy=0;exitX=1;exitY=0.5;exitDx=0;exitDy=0;" edge="1" parent="Xy-snG1Vy1SHUKCUvtYk-78" source="Xy-snG1Vy1SHUKCUvtYk-4" target="Xy-snG1Vy1SHUKCUvtYk-2">
          <mxGeometry width="50" height="50" relative="1" as="geometry">
            <mxPoint x="342.9341317365269" y="377.77777777777777" as="sourcePoint" />
            <mxPoint x="384.251497005988" y="334.8484848484848" as="targetPoint" />
          </mxGeometry>
        </mxCell>
        <mxCell id="Xy-snG1Vy1SHUKCUvtYk-6" value="1" style="text;html=1;strokeColor=none;fillColor=none;align=center;verticalAlign=middle;whiteSpace=wrap;rounded=0;" vertex="1" parent="Xy-snG1Vy1SHUKCUvtYk-78">
          <mxGeometry x="185.92814371257484" y="240.4040404040404" width="49.58083832335329" height="25.757575757575758" as="geometry" />
        </mxCell>
        <mxCell id="Xy-snG1Vy1SHUKCUvtYk-7" value="N" style="text;html=1;strokeColor=none;fillColor=none;align=center;verticalAlign=middle;whiteSpace=wrap;rounded=0;" vertex="1" parent="Xy-snG1Vy1SHUKCUvtYk-78">
          <mxGeometry x="285.0898203592814" y="240.4040404040404" width="49.58083832335329" height="25.757575757575758" as="geometry" />
        </mxCell>
        <mxCell id="Xy-snG1Vy1SHUKCUvtYk-8" value="1" style="text;html=1;strokeColor=none;fillColor=none;align=center;verticalAlign=middle;whiteSpace=wrap;rounded=0;" vertex="1" parent="Xy-snG1Vy1SHUKCUvtYk-78">
          <mxGeometry x="384.251497005988" y="240.4040404040404" width="49.58083832335329" height="25.757575757575758" as="geometry" />
        </mxCell>
        <mxCell id="Xy-snG1Vy1SHUKCUvtYk-9" value="1" style="text;html=1;strokeColor=none;fillColor=none;align=center;verticalAlign=middle;whiteSpace=wrap;rounded=0;" vertex="1" parent="Xy-snG1Vy1SHUKCUvtYk-78">
          <mxGeometry x="466.8862275449102" y="240.4040404040404" width="49.58083832335329" height="25.757575757575758" as="geometry" />
        </mxCell>
        <mxCell id="Xy-snG1Vy1SHUKCUvtYk-11" value="TITULO" style="ellipse;whiteSpace=wrap;html=1;fillColor=#dae8fc;strokeColor=#6c8ebf;" vertex="1" parent="Xy-snG1Vy1SHUKCUvtYk-78">
          <mxGeometry x="95.02994011976047" y="558.0808080808081" width="74.37125748502994" height="34.34343434343434" as="geometry" />
        </mxCell>
        <mxCell id="Xy-snG1Vy1SHUKCUvtYk-12" value="TELEFONO&amp;nbsp;" style="ellipse;whiteSpace=wrap;html=1;fillColor=#ffe6cc;strokeColor=#d79b00;" vertex="1" parent="Xy-snG1Vy1SHUKCUvtYk-78">
          <mxGeometry x="82.63473053892216" y="128.78787878787878" width="74.37125748502994" height="25.757575757575758" as="geometry" />
        </mxCell>
        <mxCell id="Xy-snG1Vy1SHUKCUvtYk-13" value="APELLIDOS&amp;nbsp;" style="ellipse;whiteSpace=wrap;html=1;fillColor=#d5e8d4;strokeColor=#82b366;" vertex="1" parent="Xy-snG1Vy1SHUKCUvtYk-78">
          <mxGeometry x="518.5329341317365" y="115.9090909090909" width="78.50299401197604" height="34.34343434343434" as="geometry" />
        </mxCell>
        <mxCell id="Xy-snG1Vy1SHUKCUvtYk-14" value="NIF&amp;nbsp;" style="ellipse;whiteSpace=wrap;html=1;fillColor=#d5e8d4;strokeColor=#82b366;" vertex="1" parent="Xy-snG1Vy1SHUKCUvtYk-78">
          <mxGeometry x="518.5329341317365" y="60.1010101010101" width="78.50299401197604" height="34.34343434343434" as="geometry" />
        </mxCell>
        <mxCell id="Xy-snG1Vy1SHUKCUvtYk-15" value="NOMBRE" style="ellipse;whiteSpace=wrap;html=1;fillColor=#d5e8d4;strokeColor=#82b366;" vertex="1" parent="Xy-snG1Vy1SHUKCUvtYk-78">
          <mxGeometry x="518.5329341317365" y="171.7171717171717" width="78.50299401197604" height="34.34343434343434" as="geometry" />
        </mxCell>
        <mxCell id="Xy-snG1Vy1SHUKCUvtYk-16" value="TELEFONO&amp;nbsp;" style="ellipse;whiteSpace=wrap;html=1;fillColor=#d5e8d4;strokeColor=#82b366;" vertex="1" parent="Xy-snG1Vy1SHUKCUvtYk-78">
          <mxGeometry x="518.5329341317365" width="78.50299401197604" height="34.34343434343434" as="geometry" />
        </mxCell>
        <mxCell id="Xy-snG1Vy1SHUKCUvtYk-17" value="DOMICILIO" style="ellipse;whiteSpace=wrap;html=1;fillColor=#ffe6cc;strokeColor=#d79b00;" vertex="1" parent="Xy-snG1Vy1SHUKCUvtYk-78">
          <mxGeometry x="78.50299401197604" y="68.68686868686868" width="78.50299401197604" height="34.34343434343434" as="geometry" />
        </mxCell>
        <mxCell id="Xy-snG1Vy1SHUKCUvtYk-18" value="REVISTAS&amp;nbsp;" style="rounded=0;whiteSpace=wrap;html=1;fillColor=#dae8fc;strokeColor=#6c8ebf;" vertex="1" parent="Xy-snG1Vy1SHUKCUvtYk-78">
          <mxGeometry x="86.76646706586826" y="485.1010101010101" width="99.16167664670658" height="51.515151515151516" as="geometry" />
        </mxCell>
        <mxCell id="Xy-snG1Vy1SHUKCUvtYk-19" value="" style="endArrow=classic;startArrow=classic;html=1;rounded=0;entryX=0.5;entryY=1;entryDx=0;entryDy=0;" edge="1" parent="Xy-snG1Vy1SHUKCUvtYk-78" target="Xy-snG1Vy1SHUKCUvtYk-1">
          <mxGeometry width="50" height="50" relative="1" as="geometry">
            <mxPoint x="136.34730538922156" y="343.4343434343434" as="sourcePoint" />
            <mxPoint x="384.251497005988" y="231.8181818181818" as="targetPoint" />
          </mxGeometry>
        </mxCell>
        <mxCell id="Xy-snG1Vy1SHUKCUvtYk-20" value="PUBLICA&amp;nbsp;" style="rhombus;whiteSpace=wrap;html=1;fillColor=#1ba1e2;fontColor=#ffffff;strokeColor=#006EAF;" vertex="1" parent="Xy-snG1Vy1SHUKCUvtYk-78">
          <mxGeometry x="103.2934131736527" y="343.4343434343434" width="66.10778443113772" height="68.68686868686868" as="geometry" />
        </mxCell>
        <mxCell id="Xy-snG1Vy1SHUKCUvtYk-21" value="" style="endArrow=classic;startArrow=classic;html=1;rounded=0;exitX=0.5;exitY=1;exitDx=0;exitDy=0;" edge="1" parent="Xy-snG1Vy1SHUKCUvtYk-78" source="Xy-snG1Vy1SHUKCUvtYk-20">
          <mxGeometry width="50" height="50" relative="1" as="geometry">
            <mxPoint x="342.9341317365269" y="489.3939393939394" as="sourcePoint" />
            <mxPoint x="136.34730538922156" y="480.8080808080808" as="targetPoint" />
          </mxGeometry>
        </mxCell>
        <mxCell id="Xy-snG1Vy1SHUKCUvtYk-22" value="1" style="text;html=1;strokeColor=none;fillColor=none;align=center;verticalAlign=middle;whiteSpace=wrap;rounded=0;" vertex="1" parent="Xy-snG1Vy1SHUKCUvtYk-78">
          <mxGeometry x="128.08383233532933" y="291.9191919191919" width="49.58083832335329" height="25.757575757575758" as="geometry" />
        </mxCell>
        <mxCell id="Xy-snG1Vy1SHUKCUvtYk-23" value="N" style="text;html=1;strokeColor=none;fillColor=none;align=center;verticalAlign=middle;whiteSpace=wrap;rounded=0;" vertex="1" parent="Xy-snG1Vy1SHUKCUvtYk-78">
          <mxGeometry x="128.08383233532933" y="326.26262626262627" width="49.58083832335329" height="25.757575757575758" as="geometry" />
        </mxCell>
        <mxCell id="Xy-snG1Vy1SHUKCUvtYk-24" value="N" style="text;html=1;strokeColor=none;fillColor=none;align=center;verticalAlign=middle;whiteSpace=wrap;rounded=0;" vertex="1" parent="Xy-snG1Vy1SHUKCUvtYk-78">
          <mxGeometry x="128.08383233532933" y="394.9494949494949" width="49.58083832335329" height="25.757575757575758" as="geometry" />
        </mxCell>
        <mxCell id="Xy-snG1Vy1SHUKCUvtYk-25" value="1" style="text;html=1;strokeColor=none;fillColor=none;align=center;verticalAlign=middle;whiteSpace=wrap;rounded=0;" vertex="1" parent="Xy-snG1Vy1SHUKCUvtYk-78">
          <mxGeometry x="128.08383233532933" y="459.34343434343435" width="49.58083832335329" height="25.757575757575758" as="geometry" />
        </mxCell>
        <mxCell id="Xy-snG1Vy1SHUKCUvtYk-26" value="N-REGISTRO" style="ellipse;whiteSpace=wrap;html=1;fillColor=#dae8fc;strokeColor=#6c8ebf;" vertex="1" parent="Xy-snG1Vy1SHUKCUvtYk-78">
          <mxGeometry x="95.02994011976047" y="618.1818181818181" width="74.37125748502994" height="34.34343434343434" as="geometry" />
        </mxCell>
        <mxCell id="Xy-snG1Vy1SHUKCUvtYk-27" value="PERIODICIDAD" style="ellipse;whiteSpace=wrap;html=1;fillColor=#dae8fc;strokeColor=#6c8ebf;" vertex="1" parent="Xy-snG1Vy1SHUKCUvtYk-78">
          <mxGeometry x="95.02994011976047" y="686.8686868686868" width="74.37125748502994" height="34.34343434343434" as="geometry" />
        </mxCell>
        <mxCell id="Xy-snG1Vy1SHUKCUvtYk-28" value="TIPO" style="ellipse;whiteSpace=wrap;html=1;fillColor=#dae8fc;strokeColor=#6c8ebf;" vertex="1" parent="Xy-snG1Vy1SHUKCUvtYk-78">
          <mxGeometry x="95.02994011976047" y="746.969696969697" width="74.37125748502994" height="34.34343434343434" as="geometry" />
        </mxCell>
        <mxCell id="Xy-snG1Vy1SHUKCUvtYk-29" value="CODIGO" style="ellipse;whiteSpace=wrap;html=1;fillColor=#ffe6cc;strokeColor=#d79b00;" vertex="1" parent="Xy-snG1Vy1SHUKCUvtYk-78">
          <mxGeometry x="82.63473053892216" y="184.59595959595958" width="74.37125748502994" height="25.757575757575758" as="geometry" />
        </mxCell>
        <mxCell id="Xy-snG1Vy1SHUKCUvtYk-30" value="" style="endArrow=classic;startArrow=classic;html=1;rounded=0;exitX=1;exitY=0.5;exitDx=0;exitDy=0;" edge="1" parent="Xy-snG1Vy1SHUKCUvtYk-78" source="Xy-snG1Vy1SHUKCUvtYk-18">
          <mxGeometry width="50" height="50" relative="1" as="geometry">
            <mxPoint x="342.9341317365269" y="489.3939393939394" as="sourcePoint" />
            <mxPoint x="293.3532934131736" y="510.85858585858585" as="targetPoint" />
          </mxGeometry>
        </mxCell>
        <mxCell id="Xy-snG1Vy1SHUKCUvtYk-31" value="ESCRIBIR&amp;nbsp;" style="rhombus;whiteSpace=wrap;html=1;fillColor=#1ba1e2;fontColor=#ffffff;strokeColor=#006EAF;" vertex="1" parent="Xy-snG1Vy1SHUKCUvtYk-78">
          <mxGeometry x="293.3532934131736" y="476.5151515151515" width="66.10778443113772" height="68.68686868686868" as="geometry" />
        </mxCell>
        <mxCell id="Xy-snG1Vy1SHUKCUvtYk-32" value="PERIODISTAS&amp;nbsp;" style="rounded=0;whiteSpace=wrap;html=1;fillColor=#e1d5e7;strokeColor=#9673a6;" vertex="1" parent="Xy-snG1Vy1SHUKCUvtYk-78">
          <mxGeometry x="450.35928143712573" y="485.1010101010101" width="99.16167664670658" height="51.515151515151516" as="geometry" />
        </mxCell>
        <mxCell id="Xy-snG1Vy1SHUKCUvtYk-33" value="" style="endArrow=classic;startArrow=classic;html=1;rounded=0;exitX=1;exitY=0.5;exitDx=0;exitDy=0;" edge="1" parent="Xy-snG1Vy1SHUKCUvtYk-78" source="Xy-snG1Vy1SHUKCUvtYk-31">
          <mxGeometry width="50" height="50" relative="1" as="geometry">
            <mxPoint x="342.9341317365269" y="489.3939393939394" as="sourcePoint" />
            <mxPoint x="450.35928143712573" y="510.85858585858585" as="targetPoint" />
          </mxGeometry>
        </mxCell>
        <mxCell id="Xy-snG1Vy1SHUKCUvtYk-34" value="1" style="text;html=1;strokeColor=none;fillColor=none;align=center;verticalAlign=middle;whiteSpace=wrap;rounded=0;" vertex="1" parent="Xy-snG1Vy1SHUKCUvtYk-78">
          <mxGeometry x="417.3053892215569" y="485.1010101010101" width="49.58083832335329" height="25.757575757575758" as="geometry" />
        </mxCell>
        <mxCell id="Xy-snG1Vy1SHUKCUvtYk-35" value="N" style="text;html=1;strokeColor=none;fillColor=none;align=center;verticalAlign=middle;whiteSpace=wrap;rounded=0;" vertex="1" parent="Xy-snG1Vy1SHUKCUvtYk-78">
          <mxGeometry x="337.9760479041916" y="485.1010101010101" width="49.58083832335329" height="25.757575757575758" as="geometry" />
        </mxCell>
        <mxCell id="Xy-snG1Vy1SHUKCUvtYk-36" value="1" style="text;html=1;strokeColor=none;fillColor=none;align=center;verticalAlign=middle;whiteSpace=wrap;rounded=0;" vertex="1" parent="Xy-snG1Vy1SHUKCUvtYk-78">
          <mxGeometry x="177.66467065868264" y="485.1010101010101" width="49.58083832335329" height="25.757575757575758" as="geometry" />
        </mxCell>
        <mxCell id="Xy-snG1Vy1SHUKCUvtYk-37" value="N" style="text;html=1;strokeColor=none;fillColor=none;align=center;verticalAlign=middle;whiteSpace=wrap;rounded=0;" vertex="1" parent="Xy-snG1Vy1SHUKCUvtYk-78">
          <mxGeometry x="260.29940119760477" y="485.1010101010101" width="49.58083832335329" height="25.757575757575758" as="geometry" />
        </mxCell>
        <mxCell id="Xy-snG1Vy1SHUKCUvtYk-38" value="NOMBRE" style="ellipse;whiteSpace=wrap;html=1;fillColor=#e1d5e7;strokeColor=#9673a6;" vertex="1" parent="Xy-snG1Vy1SHUKCUvtYk-78">
          <mxGeometry x="460.688622754491" y="558.0808080808081" width="78.50299401197604" height="34.34343434343434" as="geometry" />
        </mxCell>
        <mxCell id="Xy-snG1Vy1SHUKCUvtYk-40" value="APELLIDOS&amp;nbsp;" style="ellipse;whiteSpace=wrap;html=1;fillColor=#e1d5e7;strokeColor=#9673a6;" vertex="1" parent="Xy-snG1Vy1SHUKCUvtYk-78">
          <mxGeometry x="460.688622754491" y="618.1818181818181" width="78.50299401197604" height="34.34343434343434" as="geometry" />
        </mxCell>
        <mxCell id="Xy-snG1Vy1SHUKCUvtYk-41" value="NIF&amp;nbsp;" style="ellipse;whiteSpace=wrap;html=1;fillColor=#e1d5e7;strokeColor=#9673a6;" vertex="1" parent="Xy-snG1Vy1SHUKCUvtYk-78">
          <mxGeometry x="460.688622754491" y="746.969696969697" width="78.50299401197604" height="34.34343434343434" as="geometry" />
        </mxCell>
        <mxCell id="Xy-snG1Vy1SHUKCUvtYk-42" value="TELEFONO&amp;nbsp;" style="ellipse;whiteSpace=wrap;html=1;fillColor=#e1d5e7;strokeColor=#9673a6;" vertex="1" parent="Xy-snG1Vy1SHUKCUvtYk-78">
          <mxGeometry x="460.688622754491" y="678.2828282828283" width="78.50299401197604" height="34.34343434343434" as="geometry" />
        </mxCell>
        <mxCell id="Xy-snG1Vy1SHUKCUvtYk-43" value="ESPECIALIDAD" style="ellipse;whiteSpace=wrap;html=1;fillColor=#e1d5e7;strokeColor=#9673a6;" vertex="1" parent="Xy-snG1Vy1SHUKCUvtYk-78">
          <mxGeometry x="460.688622754491" y="815.6565656565656" width="78.50299401197604" height="34.34343434343434" as="geometry" />
        </mxCell>
        <mxCell id="Xy-snG1Vy1SHUKCUvtYk-44" value="N:M" style="text;html=1;strokeColor=none;fillColor=none;align=center;verticalAlign=middle;whiteSpace=wrap;rounded=0;" vertex="1" parent="Xy-snG1Vy1SHUKCUvtYk-78">
          <mxGeometry x="301.6167664670659" y="437.8787878787879" width="49.58083832335329" height="25.757575757575758" as="geometry" />
        </mxCell>
        <mxCell id="Xy-snG1Vy1SHUKCUvtYk-45" value="N:M" style="text;html=1;strokeColor=none;fillColor=none;align=center;verticalAlign=middle;whiteSpace=wrap;rounded=0;" vertex="1" parent="Xy-snG1Vy1SHUKCUvtYk-78">
          <mxGeometry x="173.5329341317365" y="364.8989898989899" width="49.58083832335329" height="25.757575757575758" as="geometry" />
        </mxCell>
        <mxCell id="Xy-snG1Vy1SHUKCUvtYk-46" value="1:N" style="text;html=1;strokeColor=none;fillColor=none;align=center;verticalAlign=middle;whiteSpace=wrap;rounded=0;" vertex="1" parent="Xy-snG1Vy1SHUKCUvtYk-78">
          <mxGeometry x="334.6706586826347" y="193.1818181818182" width="49.58083832335329" height="25.757575757575758" as="geometry" />
        </mxCell>
        <mxCell id="Xy-snG1Vy1SHUKCUvtYk-47" value="CODIGO" style="ellipse;whiteSpace=wrap;html=1;fillColor=#ffe6cc;strokeColor=#d79b00;" vertex="1" parent="Xy-snG1Vy1SHUKCUvtYk-78">
          <mxGeometry x="615.62874251497" y="120.2020202020202" width="74.37125748502994" height="25.757575757575758" as="geometry" />
        </mxCell>
        <mxCell id="Xy-snG1Vy1SHUKCUvtYk-48" value="FK" style="text;html=1;strokeColor=none;fillColor=none;align=center;verticalAlign=middle;whiteSpace=wrap;rounded=0;" vertex="1" parent="Xy-snG1Vy1SHUKCUvtYk-78">
          <mxGeometry x="628.0239520958083" y="85.85858585858585" width="49.58083832335329" height="25.757575757575758" as="geometry" />
        </mxCell>
        <mxCell id="Xy-snG1Vy1SHUKCUvtYk-49" value="NIF&amp;nbsp;" style="ellipse;whiteSpace=wrap;html=1;fillColor=#d5e8d4;strokeColor=#82b366;" vertex="1" parent="Xy-snG1Vy1SHUKCUvtYk-78">
          <mxGeometry y="206.06060606060606" width="78.50299401197604" height="34.34343434343434" as="geometry" />
        </mxCell>
        <mxCell id="Xy-snG1Vy1SHUKCUvtYk-50" value="FK" style="text;html=1;strokeColor=none;fillColor=none;align=center;verticalAlign=middle;whiteSpace=wrap;rounded=0;" vertex="1" parent="Xy-snG1Vy1SHUKCUvtYk-78">
          <mxGeometry x="12.395209580838323" y="167.4242424242424" width="49.58083832335329" height="25.757575757575758" as="geometry" />
        </mxCell>
        <mxCell id="Xy-snG1Vy1SHUKCUvtYk-51" value="" style="endArrow=classic;startArrow=classic;html=1;rounded=0;entryX=0.5;entryY=1;entryDx=0;entryDy=0;exitX=0.5;exitY=0;exitDx=0;exitDy=0;" edge="1" parent="Xy-snG1Vy1SHUKCUvtYk-78" source="Xy-snG1Vy1SHUKCUvtYk-14" target="Xy-snG1Vy1SHUKCUvtYk-16">
          <mxGeometry width="50" height="50" relative="1" as="geometry">
            <mxPoint x="309.88023952095807" y="214.64646464646464" as="sourcePoint" />
            <mxPoint x="351.1976047904191" y="171.7171717171717" as="targetPoint" />
          </mxGeometry>
        </mxCell>
        <mxCell id="Xy-snG1Vy1SHUKCUvtYk-52" value="" style="endArrow=classic;startArrow=classic;html=1;rounded=0;entryX=0.509;entryY=1;entryDx=0;entryDy=0;entryPerimeter=0;" edge="1" parent="Xy-snG1Vy1SHUKCUvtYk-78" source="Xy-snG1Vy1SHUKCUvtYk-13" target="Xy-snG1Vy1SHUKCUvtYk-14">
          <mxGeometry width="50" height="50" relative="1" as="geometry">
            <mxPoint x="309.88023952095807" y="214.64646464646464" as="sourcePoint" />
            <mxPoint x="351.1976047904191" y="171.7171717171717" as="targetPoint" />
          </mxGeometry>
        </mxCell>
        <mxCell id="Xy-snG1Vy1SHUKCUvtYk-53" value="" style="endArrow=classic;startArrow=classic;html=1;rounded=0;entryX=0.5;entryY=1;entryDx=0;entryDy=0;exitX=0.5;exitY=0;exitDx=0;exitDy=0;" edge="1" parent="Xy-snG1Vy1SHUKCUvtYk-78" source="Xy-snG1Vy1SHUKCUvtYk-15" target="Xy-snG1Vy1SHUKCUvtYk-13">
          <mxGeometry width="50" height="50" relative="1" as="geometry">
            <mxPoint x="309.88023952095807" y="214.64646464646464" as="sourcePoint" />
            <mxPoint x="351.1976047904191" y="171.7171717171717" as="targetPoint" />
          </mxGeometry>
        </mxCell>
        <mxCell id="Xy-snG1Vy1SHUKCUvtYk-54" value="" style="endArrow=classic;startArrow=classic;html=1;rounded=0;entryX=0.5;entryY=1;entryDx=0;entryDy=0;exitX=0.5;exitY=0;exitDx=0;exitDy=0;" edge="1" parent="Xy-snG1Vy1SHUKCUvtYk-78" source="Xy-snG1Vy1SHUKCUvtYk-2" target="Xy-snG1Vy1SHUKCUvtYk-15">
          <mxGeometry width="50" height="50" relative="1" as="geometry">
            <mxPoint x="309.88023952095807" y="291.9191919191919" as="sourcePoint" />
            <mxPoint x="351.1976047904191" y="248.989898989899" as="targetPoint" />
          </mxGeometry>
        </mxCell>
        <mxCell id="Xy-snG1Vy1SHUKCUvtYk-55" value="" style="endArrow=classic;startArrow=classic;html=1;rounded=0;entryX=0.5;entryY=1;entryDx=0;entryDy=0;exitX=1;exitY=0;exitDx=0;exitDy=0;" edge="1" parent="Xy-snG1Vy1SHUKCUvtYk-78" source="Xy-snG1Vy1SHUKCUvtYk-2" target="Xy-snG1Vy1SHUKCUvtYk-47">
          <mxGeometry width="50" height="50" relative="1" as="geometry">
            <mxPoint x="309.88023952095807" y="145.95959595959596" as="sourcePoint" />
            <mxPoint x="351.1976047904191" y="103.03030303030303" as="targetPoint" />
          </mxGeometry>
        </mxCell>
        <mxCell id="Xy-snG1Vy1SHUKCUvtYk-56" value="N-REGISTRO" style="ellipse;whiteSpace=wrap;html=1;fillColor=#dae8fc;strokeColor=#6c8ebf;" vertex="1" parent="Xy-snG1Vy1SHUKCUvtYk-78">
          <mxGeometry x="351.1976047904191" y="420.70707070707067" width="74.37125748502994" height="34.34343434343434" as="geometry" />
        </mxCell>
        <mxCell id="Xy-snG1Vy1SHUKCUvtYk-57" value="NIF&amp;nbsp;" style="ellipse;whiteSpace=wrap;html=1;fillColor=#e1d5e7;strokeColor=#9673a6;" vertex="1" parent="Xy-snG1Vy1SHUKCUvtYk-78">
          <mxGeometry x="235.50898203592814" y="420.70707070707067" width="78.50299401197604" height="34.34343434343434" as="geometry" />
        </mxCell>
        <mxCell id="Xy-snG1Vy1SHUKCUvtYk-58" value="FK" style="text;html=1;strokeColor=none;fillColor=none;align=center;verticalAlign=middle;whiteSpace=wrap;rounded=0;" vertex="1" parent="Xy-snG1Vy1SHUKCUvtYk-78">
          <mxGeometry x="249.97005988023952" y="394.9494949494949" width="49.58083832335329" height="25.757575757575758" as="geometry" />
        </mxCell>
        <mxCell id="Xy-snG1Vy1SHUKCUvtYk-59" value="FK" style="text;html=1;strokeColor=none;fillColor=none;align=center;verticalAlign=middle;whiteSpace=wrap;rounded=0;" vertex="1" parent="Xy-snG1Vy1SHUKCUvtYk-78">
          <mxGeometry x="367.7245508982036" y="394.9494949494949" width="49.58083832335329" height="25.757575757575758" as="geometry" />
        </mxCell>
        <mxCell id="Xy-snG1Vy1SHUKCUvtYk-60" value="" style="endArrow=classic;startArrow=classic;html=1;rounded=0;entryX=0.5;entryY=1;entryDx=0;entryDy=0;exitX=0.355;exitY=0.074;exitDx=0;exitDy=0;exitPerimeter=0;" edge="1" parent="Xy-snG1Vy1SHUKCUvtYk-78" source="Xy-snG1Vy1SHUKCUvtYk-31" target="Xy-snG1Vy1SHUKCUvtYk-57">
          <mxGeometry width="50" height="50" relative="1" as="geometry">
            <mxPoint x="301.6167664670659" y="497.979797979798" as="sourcePoint" />
            <mxPoint x="351.1976047904191" y="463.6363636363636" as="targetPoint" />
          </mxGeometry>
        </mxCell>
        <mxCell id="Xy-snG1Vy1SHUKCUvtYk-61" value="" style="endArrow=classic;startArrow=classic;html=1;rounded=0;entryX=0.5;entryY=1;entryDx=0;entryDy=0;exitX=0.596;exitY=0.065;exitDx=0;exitDy=0;exitPerimeter=0;" edge="1" parent="Xy-snG1Vy1SHUKCUvtYk-78" source="Xy-snG1Vy1SHUKCUvtYk-31" target="Xy-snG1Vy1SHUKCUvtYk-56">
          <mxGeometry width="50" height="50" relative="1" as="geometry">
            <mxPoint x="309.88023952095807" y="506.5656565656565" as="sourcePoint" />
            <mxPoint x="351.1976047904191" y="463.6363636363636" as="targetPoint" />
          </mxGeometry>
        </mxCell>
        <mxCell id="Xy-snG1Vy1SHUKCUvtYk-64" value="" style="endArrow=classic;startArrow=classic;html=1;rounded=0;exitX=0.5;exitY=0;exitDx=0;exitDy=0;entryX=0.5;entryY=1;entryDx=0;entryDy=0;" edge="1" parent="Xy-snG1Vy1SHUKCUvtYk-78" source="Xy-snG1Vy1SHUKCUvtYk-28" target="Xy-snG1Vy1SHUKCUvtYk-27">
          <mxGeometry width="50" height="50" relative="1" as="geometry">
            <mxPoint x="309.88023952095807" y="652.5252525252525" as="sourcePoint" />
            <mxPoint x="351.1976047904191" y="609.5959595959596" as="targetPoint" />
          </mxGeometry>
        </mxCell>
        <mxCell id="Xy-snG1Vy1SHUKCUvtYk-65" value="" style="endArrow=classic;startArrow=classic;html=1;rounded=0;exitX=0.5;exitY=0;exitDx=0;exitDy=0;entryX=0.5;entryY=1;entryDx=0;entryDy=0;" edge="1" parent="Xy-snG1Vy1SHUKCUvtYk-78" source="Xy-snG1Vy1SHUKCUvtYk-27" target="Xy-snG1Vy1SHUKCUvtYk-26">
          <mxGeometry width="50" height="50" relative="1" as="geometry">
            <mxPoint x="309.88023952095807" y="652.5252525252525" as="sourcePoint" />
            <mxPoint x="351.1976047904191" y="609.5959595959596" as="targetPoint" />
          </mxGeometry>
        </mxCell>
        <mxCell id="Xy-snG1Vy1SHUKCUvtYk-66" value="" style="endArrow=classic;startArrow=classic;html=1;rounded=0;exitX=0.5;exitY=0;exitDx=0;exitDy=0;entryX=0.5;entryY=1;entryDx=0;entryDy=0;" edge="1" parent="Xy-snG1Vy1SHUKCUvtYk-78" source="Xy-snG1Vy1SHUKCUvtYk-26" target="Xy-snG1Vy1SHUKCUvtYk-11">
          <mxGeometry width="50" height="50" relative="1" as="geometry">
            <mxPoint x="309.88023952095807" y="652.5252525252525" as="sourcePoint" />
            <mxPoint x="351.1976047904191" y="609.5959595959596" as="targetPoint" />
          </mxGeometry>
        </mxCell>
        <mxCell id="Xy-snG1Vy1SHUKCUvtYk-67" value="" style="endArrow=classic;startArrow=classic;html=1;rounded=0;exitX=0.5;exitY=0;exitDx=0;exitDy=0;entryX=0.464;entryY=0.966;entryDx=0;entryDy=0;entryPerimeter=0;" edge="1" parent="Xy-snG1Vy1SHUKCUvtYk-78" source="Xy-snG1Vy1SHUKCUvtYk-11" target="Xy-snG1Vy1SHUKCUvtYk-18">
          <mxGeometry width="50" height="50" relative="1" as="geometry">
            <mxPoint x="309.88023952095807" y="652.5252525252525" as="sourcePoint" />
            <mxPoint x="132.21556886227543" y="540.9090909090909" as="targetPoint" />
          </mxGeometry>
        </mxCell>
        <mxCell id="Xy-snG1Vy1SHUKCUvtYk-69" value="" style="endArrow=classic;startArrow=classic;html=1;rounded=0;entryX=0.5;entryY=1;entryDx=0;entryDy=0;exitX=0.326;exitY=-0.034;exitDx=0;exitDy=0;exitPerimeter=0;" edge="1" parent="Xy-snG1Vy1SHUKCUvtYk-78" source="Xy-snG1Vy1SHUKCUvtYk-1" target="Xy-snG1Vy1SHUKCUvtYk-29">
          <mxGeometry width="50" height="50" relative="1" as="geometry">
            <mxPoint x="119.82035928143712" y="231.8181818181818" as="sourcePoint" />
            <mxPoint x="351.1976047904191" y="171.7171717171717" as="targetPoint" />
          </mxGeometry>
        </mxCell>
        <mxCell id="Xy-snG1Vy1SHUKCUvtYk-70" value="" style="endArrow=classic;startArrow=classic;html=1;rounded=0;entryX=0.526;entryY=1;entryDx=0;entryDy=0;entryPerimeter=0;" edge="1" parent="Xy-snG1Vy1SHUKCUvtYk-78" source="Xy-snG1Vy1SHUKCUvtYk-12" target="Xy-snG1Vy1SHUKCUvtYk-17">
          <mxGeometry width="50" height="50" relative="1" as="geometry">
            <mxPoint x="309.88023952095807" y="214.64646464646464" as="sourcePoint" />
            <mxPoint x="351.1976047904191" y="171.7171717171717" as="targetPoint" />
          </mxGeometry>
        </mxCell>
        <mxCell id="Xy-snG1Vy1SHUKCUvtYk-71" value="" style="endArrow=classic;startArrow=classic;html=1;rounded=0;exitX=0.5;exitY=0;exitDx=0;exitDy=0;entryX=0.5;entryY=1;entryDx=0;entryDy=0;" edge="1" parent="Xy-snG1Vy1SHUKCUvtYk-78" source="Xy-snG1Vy1SHUKCUvtYk-29" target="Xy-snG1Vy1SHUKCUvtYk-12">
          <mxGeometry width="50" height="50" relative="1" as="geometry">
            <mxPoint x="309.88023952095807" y="214.64646464646464" as="sourcePoint" />
            <mxPoint x="351.1976047904191" y="171.7171717171717" as="targetPoint" />
          </mxGeometry>
        </mxCell>
        <mxCell id="Xy-snG1Vy1SHUKCUvtYk-72" value="" style="endArrow=classic;startArrow=classic;html=1;rounded=0;exitX=0.55;exitY=1.086;exitDx=0;exitDy=0;exitPerimeter=0;entryX=0;entryY=0.5;entryDx=0;entryDy=0;" edge="1" parent="Xy-snG1Vy1SHUKCUvtYk-78" source="Xy-snG1Vy1SHUKCUvtYk-49" target="Xy-snG1Vy1SHUKCUvtYk-1">
          <mxGeometry width="50" height="50" relative="1" as="geometry">
            <mxPoint x="309.88023952095807" y="214.64646464646464" as="sourcePoint" />
            <mxPoint x="351.1976047904191" y="171.7171717171717" as="targetPoint" />
          </mxGeometry>
        </mxCell>
        <mxCell id="Xy-snG1Vy1SHUKCUvtYk-73" value="" style="endArrow=classic;startArrow=classic;html=1;rounded=0;entryX=0.5;entryY=1;entryDx=0;entryDy=0;" edge="1" parent="Xy-snG1Vy1SHUKCUvtYk-78" source="Xy-snG1Vy1SHUKCUvtYk-38" target="Xy-snG1Vy1SHUKCUvtYk-32">
          <mxGeometry width="50" height="50" relative="1" as="geometry">
            <mxPoint x="309.88023952095807" y="652.5252525252525" as="sourcePoint" />
            <mxPoint x="351.1976047904191" y="609.5959595959596" as="targetPoint" />
          </mxGeometry>
        </mxCell>
        <mxCell id="Xy-snG1Vy1SHUKCUvtYk-74" value="" style="endArrow=classic;startArrow=classic;html=1;rounded=0;entryX=0.5;entryY=1;entryDx=0;entryDy=0;exitX=0.5;exitY=0;exitDx=0;exitDy=0;" edge="1" parent="Xy-snG1Vy1SHUKCUvtYk-78" source="Xy-snG1Vy1SHUKCUvtYk-40" target="Xy-snG1Vy1SHUKCUvtYk-38">
          <mxGeometry width="50" height="50" relative="1" as="geometry">
            <mxPoint x="309.88023952095807" y="652.5252525252525" as="sourcePoint" />
            <mxPoint x="351.1976047904191" y="609.5959595959596" as="targetPoint" />
          </mxGeometry>
        </mxCell>
        <mxCell id="Xy-snG1Vy1SHUKCUvtYk-75" value="" style="endArrow=classic;startArrow=classic;html=1;rounded=0;entryX=0.5;entryY=1;entryDx=0;entryDy=0;exitX=0.5;exitY=0;exitDx=0;exitDy=0;" edge="1" parent="Xy-snG1Vy1SHUKCUvtYk-78" source="Xy-snG1Vy1SHUKCUvtYk-42" target="Xy-snG1Vy1SHUKCUvtYk-40">
          <mxGeometry width="50" height="50" relative="1" as="geometry">
            <mxPoint x="309.88023952095807" y="652.5252525252525" as="sourcePoint" />
            <mxPoint x="351.1976047904191" y="609.5959595959596" as="targetPoint" />
          </mxGeometry>
        </mxCell>
        <mxCell id="Xy-snG1Vy1SHUKCUvtYk-76" value="" style="endArrow=classic;startArrow=classic;html=1;rounded=0;entryX=0.5;entryY=1;entryDx=0;entryDy=0;exitX=0.5;exitY=0;exitDx=0;exitDy=0;" edge="1" parent="Xy-snG1Vy1SHUKCUvtYk-78" source="Xy-snG1Vy1SHUKCUvtYk-41" target="Xy-snG1Vy1SHUKCUvtYk-42">
          <mxGeometry width="50" height="50" relative="1" as="geometry">
            <mxPoint x="309.88023952095807" y="652.5252525252525" as="sourcePoint" />
            <mxPoint x="351.1976047904191" y="609.5959595959596" as="targetPoint" />
          </mxGeometry>
        </mxCell>
        <mxCell id="Xy-snG1Vy1SHUKCUvtYk-77" value="" style="endArrow=classic;startArrow=classic;html=1;rounded=0;entryX=0.5;entryY=1;entryDx=0;entryDy=0;exitX=0.5;exitY=0;exitDx=0;exitDy=0;" edge="1" parent="Xy-snG1Vy1SHUKCUvtYk-78" source="Xy-snG1Vy1SHUKCUvtYk-43" target="Xy-snG1Vy1SHUKCUvtYk-41">
          <mxGeometry width="50" height="50" relative="1" as="geometry">
            <mxPoint x="309.88023952095807" y="721.2121212121212" as="sourcePoint" />
            <mxPoint x="351.1976047904191" y="678.2828282828283" as="targetPoint" />
          </mxGeometry>
        </mxCell>
        <mxCell id="Xy-snG1Vy1SHUKCUvtYk-81" value="CAMPÃS MUÃOZ ERICK JHIBRAN&amp;nbsp;&lt;br&gt;9810XA6&lt;br&gt;ENTREGABLE 1" style="text;html=1;strokeColor=none;fillColor=none;align=center;verticalAlign=middle;whiteSpace=wrap;rounded=0;" vertex="1" parent="1">
          <mxGeometry x="-530" y="-1060" width="140" height="30" as="geometry" />
        </mxCell>
      </root>
    </mxGraphModel>
  </diagram>
</mxfile>
